# xmcd CD database file generated by Grip 3.2.0
# 
# Track frame offsets:
#       150
#       12550
#       25825
#       48950
#       61925
#       75200
#       98550
#       122950
#       137950
#       157600
#       177100
#       186375
#       199700
#       225225
# 
# Disc length: 3183 seconds
# 
# Revision: 5
# Processed by: cddbd v1.5.2PL0 Copyright (c) Steve Scherf et al.
# Submitted via: Grip 3.2.0
# 
DISCID=a40c6d0e
DTITLE=John Lee Hooker - I'm in the Mood
DYEAR=1997
DGENRE=Blues
TTITLE0=I'm in the Mood
TTITLE1=Hit the Road
TTITLE2=Decoration Day
TTITLE3=Mr. Lucky
TTITLE4=Union Station Blues
TTITLE5=Lonesome Mood
TTITLE6=Bluebird
TTITLE7=Ramblin' by Myself
TTITLE8=Shake It Baby
TTITLE9=You're Wrong
TTITLE10=Think Twice Before You Go
TTITLE11=Ground Hog Blues
TTITLE12=Country Boy
TTITLE13=One Bourbon, One Scotch, One Beer
EXTD=
EXTT0=
EXTT1=
EXTT2=
EXTT3=
EXTT4=
EXTT5=
EXTT6=
EXTT7=
EXTT8=
EXTT9=
EXTT10=
EXTT11=
EXTT12=
EXTT13=
PLAYORDER=
